<svg xmlns="http://www.w3.org/2000/svg" enable-background="new 0 0 32 32" viewBox="0 0 32 32" id="sunset"><path d="M29 23h-2c-.552 0-1-.448-1-1s.448-1 1-1h2c.552 0 1 .448 1 1S29.552 23 29 23zM5 23H3c-.552 0-1-.448-1-1s.448-1 1-1h2c.552 0 1 .448 1 1S5.552 23 5 23zM7.293 14.707l-1.192-1.192c-.391-.391-.391-1.023 0-1.414s1.023-.391 1.414 0l1.192 1.192c.391.391.391 1.023 0 1.414C8.316 15.098 7.684 15.098 7.293 14.707zM23.293 14.707c-.391-.391-.391-1.023 0-1.414l1.192-1.192c.391-.391 1.023-.391 1.414 0s.391 1.023 0 1.414l-1.192 1.192C24.316 15.098 23.684 15.098 23.293 14.707zM8.263 24C8.097 23.359 8 22.692 8 22c0-4.411 3.589-8 8-8s8 3.589 8 8c0 .692-.097 1.359-.263 2H8.263zM25.5 28h-19C6.224 28 6 27.776 6 27.5v-1C6 26.224 6.224 26 6.5 26h19c.276 0 .5.224.5.5v1C26 27.776 25.776 28 25.5 28zM16 4c.552 0 1 .448 1 1v3.586l1.293-1.293c.391-.391 1.023-.391 1.414 0s.391 1.023 0 1.414l-3 3C16.522 11.892 16.261 12 16 12s-.522-.108-.707-.293l-3-3c-.391-.391-.391-1.023 0-1.414s1.023-.391 1.414 0L15 8.586V5C15 4.448 15.448 4 16 4z"></path></svg>